<?xml version="1.0" standalone="no"?><!DOCTYPE svg PUBLIC "-//W3C//DTD SVG 1.1//EN" "http://www.w3.org/Graphics/SVG/1.1/DTD/svg11.dtd"><svg t="1570961305026" class="icon" viewBox="0 0 1024 1024" version="1.1" xmlns="http://www.w3.org/2000/svg" p-id="2750" xmlns:xlink="http://www.w3.org/1999/xlink" width="200" height="200"><defs><style type="text/css"></style></defs><path d="M615.2 866.7c133.3 3.5 243.8 25.1 242 41.5s-46.5 50.1-203.4 51.8c-157 1.7-296.4-24.2-280.6-48.4 14.9-19.8 183.3-44.9 242-44.9z" fill="#EDEDED" p-id="2751"></path><path d="M642.3 522.9L299.4 631.1l1.3-256.4 179.6-116.5 162 264.7z" fill="#E2E2E2" p-id="2752"></path><path d="M642.3 522.9l155-204.8-126.8-169.4-190.2 109.4 162 264.8z" fill="#EFEFEF" p-id="2753"></path><path d="M609.3 63.3l-299.2 38.1 176.1 283.8 311.1-67.1z" fill="#F2F2F2" p-id="2754"></path><path d="M501.4 176.9l-17.6 208.3 309.9-67.1-137.3-162.4-155 21.2zM642.3 522.9l155-204.8 95.1-70.6-126.8 176.6-123.3 98.8z" fill="#E2E2E2" p-id="2755"></path><path d="M557.8 208.7l-71.6 176.5 311.1-67 45.8-155.4-285.3 45.9z" fill="#F7F7F7" p-id="2756"></path><path d="M642.3 522.9L299.4 631.1l-26.9 149.6 338.1-113 31.7-144.8z" fill="#EFEFEF" p-id="2757"></path><path d="M310.1 101.4l176.1 283.7-186.8 246-144.2-286 154.9-243.7z" fill="#E8E8E8" p-id="2758"></path><path d="M313.6 289.8l172.6 95.3-186.8 246L134 540.5l179.6-250.7z" fill="#F7F7F7" p-id="2759"></path><path d="M550.6 735.9l-29 28 23.2 28 23.2-28-17.4-28zM577.4 905.8l31.1 7.4 15.5-11.1-23.3-7.4-23.3 11.1z" fill="#9CC2E9" p-id="2760"></path></svg>